<?xml version="1.0" encoding="utf-8"?>
<!-- Generator: Adobe Illustrator 24.1.0, SVG Export Plug-In . SVG Version: 6.00 Build 0)  -->
<svg version="1.1" id="Capa_1" xmlns="http://www.w3.org/2000/svg" xmlns:xlink="http://www.w3.org/1999/xlink" x="0px" y="0px"
	 viewBox="0 0 431.5 106.1" style="enable-background:new 0 0 431.5 106.1;" xml:space="preserve">
<style type="text/css">
	.st0{fill:#00D76C;}
	.st1{fill:#FFFFFF;}
	.st2{font-family:'AlternateGotNo2D';}
	.st3{font-size:105px;}
	.st4{enable-background:new    ;}
</style>
<g>
	<g>
		<path class="st0" d="M116.4,39.5c-0.1-1.4-0.1-2.8-0.2-4.1c-0.4-5.8-1.1-12.5-4.9-17.2c-3.3-4-8.4-4.9-13.3-5.4
			c-6.1-0.7-12.3-1.1-18.5-1.4c-12.5-0.5-25-0.2-37.6,0.1c-6.4,0.1-12.9,0.3-19.3,0.8c-7.9,0.6-16,1.8-19.6,9.6
			C-0.3,29,0.1,38,0,45.6C0,52.4,0,59.2,0.2,66c0.4,8.8,0.9,20.3,10.4,24.2c5.1,2.1,11.2,2.5,16.7,2.9c5.8,0.4,11.5,0.3,17.3,0.4
			c12.1,0.2,24.2-0.2,36.3-0.5c8.4-0.2,17-0.3,25.1-3c6.9-2.4,8.8-9.9,9.7-16.4c0.9-6.5,0.7-13.1,0.7-19.6
			C116.4,49.2,116.5,44.4,116.4,39.5z"/>
		<path class="st1" d="M76.6,52.2c-10.2-6-20.1-11.8-30.2-17.7c0,11.9,0,23.6,0,35.4C56.5,64,66.4,58.2,76.6,52.2z"/>
	</g>
	<text transform="matrix(1 0 0 1 127.5072 87.5176)" class="st1 st2 st3">YouMovie</text>
</g>
<g class="st4">
	<path class="st1" d="M412.7,34.3h3.3c1.3,0,2.3,0.3,2.9,1c0.6,0.7,0.9,1.8,0.9,3.3v6.7c0,1.5-0.3,2.6-0.9,3.3c-0.6,0.7-1.6,1-2.9,1
		h-3.3V34.3z M415.7,47.5c0.6,0,1.1-0.2,1.4-0.6c0.2-0.2,0.3-0.5,0.3-0.7c0.1-0.3,0.1-0.7,0.1-1.3v-5.8c0-0.6,0-1-0.1-1.3
		c-0.1-0.3-0.2-0.5-0.3-0.7c-0.3-0.4-0.8-0.6-1.4-0.6H415v11H415.7z"/>
	<path class="st1" d="M421.8,34.3h3.2c2.5,0,3.8,1.3,3.8,3.9c0,0.8-0.1,1.5-0.4,2c-0.2,0.5-0.7,1-1.3,1.4c0.7,0.3,1.2,0.8,1.5,1.4
		c0.3,0.6,0.4,1.4,0.4,2.4c0,1.5-0.4,2.6-1.1,3.4c-0.3,0.3-0.7,0.5-1,0.6c-0.4,0.1-1,0.2-1.7,0.2h-3.4V34.3z M424.6,40.6
		c0.7,0,1.2-0.2,1.5-0.5c0.3-0.3,0.5-0.9,0.5-1.7c0-1.3-0.5-1.9-1.6-1.9h-0.9v4.1H424.6z M424.9,47.5c0.6,0,1.1-0.2,1.4-0.5
		c0.3-0.3,0.4-0.9,0.4-1.7c0-1-0.2-1.7-0.7-2.1c-0.2-0.1-0.3-0.2-0.5-0.3c-0.2-0.1-0.5-0.1-0.8-0.1h-0.6v4.7H424.9z"/>
</g>
</svg>
